#!OML:ASF C:\Vicon Data\Big\jianyuan-12\jianyuan\Session 1\Capture.male.ASF
:FULLY-SPECIFIED
:DEGREES
42
root -8.395851 17.019433 -20.851140 6.465888 -4.050621 5.633786
lowerback -11.387448 -3.146431 -3.400695 
upperback 1.754552 -3.756043 0.529637 
thorax 8.532034 -1.999561 1.773553 
lowerneck -1.159606 -9.163624 -7.759558 
upperneck 7.730528 -12.721917 9.923625 
head 3.625861 -6.179301 3.702122 
rclavicle 0.000000 0.000000 
rhumerus -45.861684 -33.457143 -69.111132 
rradius 32.135578 
rwrist 41.841928 
rhand -22.054917 -3.724404 
rfingers 0.000000 
rthumb 4.355712 -33.659596 
lclavicle 0.000000 0.000000 
lhumerus -29.000003 27.593205 79.294991 
lradius 32.107145 
lwrist -44.907253 
lhand -10.484881 3.606401 
lfingers 0.000000 
lthumb 15.516737 33.003830 
rfemur -21.403771 -0.882192 22.106841 
rtibia 24.637790 
rfoot -19.926272 -9.709363 
rtoes -9.447437 
lfemur -13.684441 7.689552 -21.100488 
ltibia 60.645091 
lfoot -4.576568 8.144672 
ltoes -12.793806 
43
root -8.420483 17.017505 -20.778319 6.497630 -4.125734 5.521603
lowerback -11.399423 -3.167131 -3.442712 
upperback 1.806783 -3.789215 0.672339 
thorax 8.611257 -2.023426 1.940147 
lowerneck -1.367350 -9.160609 -7.933105 
upperneck 7.635807 -12.707106 10.052160 
head 3.649738 -6.168844 3.759040 
rclavicle 0.000000 0.000000 
rhumerus -45.321932 -33.148910 -69.382314 
rradius 32.217115 
rwrist 41.575459 
rhand -22.163211 -3.790338 
rfingers 0.000000 
rthumb 4.251140 -33.727681 
lclavicle 0.000000 0.000000 
lhumerus -29.242093 28.121687 79.241128 
lradius 31.714697 
lwrist -46.042305 
lhand -10.684472 3.506797 
lfingers 0.000000 
lthumb 15.324435 32.919024 
rfemur -21.078099 -0.608646 22.287370 
rtibia 24.582009 
rfoot -20.267024 -9.786249 
rtoes -9.514396 
lfemur -14.604549 7.549424 -20.955829 
ltibia 61.644990 
lfoot -5.135429 8.018316 
ltoes -11.607560 
44
root -8.434703 17.018022 -20.708116 6.369912 -4.203217 5.435577
lowerback -11.224418 -3.155192 -3.326332 
upperback 1.869370 -3.797137 0.684283 
thorax 8.571388 -2.022983 1.892983 
lowerneck -1.404558 -9.155251 -7.914661 
upperneck 7.489354 -12.702381 10.214078 
head 3.620788 -6.162089 3.805968 
rclavicle 0.000000 0.000000 
rhumerus -44.817545 -32.807643 -69.799081 
rradius 32.284945 
rwrist 41.097680 
rhand -22.129029 -3.765046 
rfingers 0.000000 
rthumb 4.284179 -33.701697 
lclavicle 0.000000 0.000000 
lhumerus -29.547692 28.726308 78.923180 
lradius 31.392443 
lwrist -46.309518 
lhand -10.395900 2.925176 
lfingers 0.000000 
lthumb 15.602320 32.315910 
rfemur -20.600492 -0.595160 22.413669 
rtibia 24.509414 
rfoot -20.497974 -9.615316 
rtoes -9.431910 
lfemur -15.385002 7.526182 -20.867826 
ltibia 62.516110 
lfoot -5.399317 8.026882 
ltoes -11.749577 
45
root -8.443287 17.016094 -20.643053 6.325326 -4.320231 5.310457
lowerback -11.082652 -3.081161 -3.064051 
upperback 1.892159 -3.735510 0.628365 
thorax 8.487732 -1.978599 1.704963 
lowerneck -1.375323 -9.167161 -7.777463 
upperneck 7.347185 -12.724334 10.331624 
head 3.574256 -6.168508 3.823116 
rclavicle 0.000000 0.000000 
rhumerus -44.557594 -32.777350 -70.069964 
rradius 32.410594 
rwrist 41.018077 
rhand -22.157068 -3.671561 
rfingers 0.000000 
rthumb 4.257110 -33.608753 
lclavicle 0.000000 0.000000 
lhumerus -29.827827 28.908190 78.670168 
lradius 31.114175 
lwrist -46.800383 
lhand -10.329010 2.976515 
lfingers 0.000000 
lthumb 15.666811 32.362167 
rfemur -20.266928 -0.581141 22.568843 
rtibia 24.457852 
rfoot -20.661419 -9.420105 
rtoes -9.389162 
lfemur -16.303768 7.415476 -20.823938 
ltibia 63.356713 
lfoot -5.789516 8.156178 
ltoes -12.354092 
46
root -8.461657 17.014874 -20.577926 6.259251 -4.452087 5.247983
lowerback -10.924829 -3.022566 -3.049131 
upperback 1.931280 -3.664534 0.628925 
thorax 8.433691 -1.943991 1.717235 
lowerneck -1.369708 -9.182807 -7.652686 
upperneck 7.176500 -12.741742 10.379017 
head 3.518967 -6.175790 3.820759 
rclavicle 0.000000 0.000000 
rhumerus -44.193363 -32.616715 -70.376213 
rradius 32.517159 
rwrist 40.866949 
rhand -22.151268 -3.754008 
rfingers 0.000000 
rthumb 4.262702 -33.691112 
lclavicle 0.000000 0.000000 
lhumerus -30.090576 29.085787 78.536140 
lradius 30.850228 
lwrist -47.461182 
lhand -10.251595 3.151815 
lfingers 0.000000 
lthumb 15.741362 32.531583 
rfemur -19.911321 -0.403159 22.681515 
rtibia 24.453302 
rfoot -20.944540 -9.358948 
rtoes -9.388423 
lfemur -17.146206 7.312854 -20.778895 
ltibia 64.097653 
lfoot -5.976651 8.129195 
ltoes -12.945608 
47
root -8.479837 17.008275 -20.513930 6.166854 -4.591646 5.205166
lowerback -10.743560 -3.011078 -3.105845 
upperback 1.984268 -3.653564 0.706797 
thorax 8.395283 -1.944592 1.840930 
lowerneck -1.474692 -9.180063 -7.722544 
upperneck 7.099267 -12.731244 10.448957 
head 3.521215 -6.168861 3.849096 
rclavicle 0.000000 0.000000 
rhumerus -43.747395 -32.384821 -70.609504 
rradius 32.698823 
rwrist 40.635285 
rhand -21.924719 -3.888928 
rfingers 0.000000 
rthumb 4.481460 -33.821498 
lclavicle 0.000000 0.000000 
lhumerus -30.378686 29.449949 78.516322 
lradius 30.630112 
lwrist -48.151307 
lhand -10.219706 3.378581 
lfingers 0.000000 
lthumb 15.772095 32.755962 
rfemur -19.570187 -0.445585 22.801213 
rtibia 24.497631 
rfoot -21.152531 -9.093692 
rtoes -9.519334 
lfemur -17.932352 7.241783 -20.744533 
ltibia 64.778936 
lfoot -6.182820 8.095016 
ltoes -13.410532 
48
root -8.495868 17.006375 -20.446702 6.128465 -4.701235 5.214790
lowerback -10.669874 -2.964187 -3.080158 
upperback 2.022209 -3.592056 0.650347 
thorax 8.384319 -1.912447 1.780494 
lowerneck -1.404601 -9.210274 -7.574495 
upperneck 6.907041 -12.771288 10.512904 
head 3.450547 -6.188710 3.850328 
rclavicle 0.000000 0.000000 
rhumerus -43.436193 -32.316434 -70.881896 
rradius 32.815893 
rwrist 40.399051 
rhand -21.956442 -3.808203 
rfingers 0.000000 
rthumb 4.450837 -33.741451 
lclavicle 0.000000 0.000000 
lhumerus -30.621021 29.955130 78.191529 
lradius 30.255323 
lwrist -48.563669 
lhand -10.092030 2.866354 
lfingers 0.000000 
lthumb 15.894981 32.233990 
rfemur -19.306378 -0.524382 22.844514 
rtibia 24.598070 
rfoot -21.470131 -8.825841 
rtoes -9.347756 
lfemur -18.737345 7.007342 -20.807645 
ltibia 65.336592 
lfoot -6.540126 8.120373 
ltoes -12.666445 
49
root -8.512471 17.003567 -20.373924 6.057572 -4.924711 5.244232
lowerback -10.628589 -2.863447 -3.098744 
upperback 2.064254 -3.449058 0.565173 
thorax 8.392559 -1.842192 1.727694 
lowerneck -1.367953 -9.283408 -7.245548 
upperneck 6.835627 -12.872193 10.459277 
head 3.407986 -6.234013 3.781285 
rclavicle 0.000000 0.000000 
rhumerus -43.191390 -32.364190 -71.100584 
rradius 32.859994 
rwrist 40.533367 
rhand -21.948161 -3.790855 
rfingers 0.000000 
rthumb 4.458836 -33.723915 
lclavicle 0.000000 0.000000 
lhumerus -30.997414 29.993363 77.983540 
lradius 30.187897 
lwrist -48.740309 
lhand -9.695728 3.081677 
lfingers 0.000000 
lthumb 16.276657 32.418499 
rfemur -18.964238 -0.339963 22.822823 
rtibia 24.688580 
rfoot -21.643696 -8.665525 
rtoes -10.019689 
lfemur -19.442582 6.865669 -20.911284 
ltibia 65.782578 
lfoot -6.879987 8.137193 
ltoes -13.236624 
50
root -8.535339 17.003736 -20.296435 5.857691 -5.282743 5.226394
lowerback -10.503797 -2.770196 -3.193446 
upperback 2.151005 -3.317826 0.596601 
thorax 8.414548 -1.785723 1.841510 
lowerneck -1.234832 -9.222506 -7.429811 
upperneck 6.601428 -12.796354 10.768521 
head 3.341007 -6.200367 3.917621 
rclavicle 0.000000 0.000000 
rhumerus -42.859601 -32.198167 -71.259482 
rradius 32.911580 
rwrist 40.661623 
rhand -22.087674 -3.702237 
rfingers 0.000000 
rthumb 4.324080 -33.638088 
lclavicle 0.000000 0.000000 
lhumerus -31.308260 30.414190 77.886463 
lradius 29.938551 
lwrist -49.811940 
lhand -9.759458 3.699487 
lfingers 0.000000 
lthumb 16.215261 33.041328 
rfemur -18.420987 0.158923 22.829970 
rtibia 24.769077 
rfoot -22.125535 -8.519588 
rtoes -9.466223 
lfemur -19.899898 6.903539 -20.913123 
ltibia 66.101115 
lfoot -7.226533 8.089064 
ltoes -14.495735 
51
root -8.552919 16.998255 -20.228420 5.707295 -5.525282 5.223314
lowerback -10.321014 -2.636847 -3.182847 
upperback 2.206775 -3.138795 0.498248 
thorax 8.351455 -1.695879 1.770095 
lowerneck -1.186184 -9.252202 -7.161322 
upperneck 6.480328 -12.838769 10.799808 
head 3.285718 -6.217502 3.888603 
rclavicle 0.000000 0.000000 
rhumerus -42.608108 -32.245653 -71.545128 
rradius 33.055878 
rwrist 40.234389 
rhand -22.191542 -3.703398 
rfingers 0.000000 
rthumb 4.223840 -33.641281 
lclavicle 0.000000 0.000000 
lhumerus -31.604652 30.685211 77.535038 
lradius 29.593201 
lwrist -50.503721 
lhand -9.863459 3.545095 
lfingers 0.000000 
lthumb 16.115104 32.895080 
rfemur -17.991618 0.371260 22.863384 
rtibia 24.844257 
rfoot -22.499116 -8.334234 
rtoes -9.130714 
lfemur -20.497117 6.728604 -20.947923 
ltibia 66.428772 
lfoot -7.676122 7.988805 
ltoes -14.255493 
